<svg 
 xmlns="http://www.w3.org/2000/svg"
 xmlns:xlink="http://www.w3.org/1999/xlink"
 width="881.5px" height="813.5px">
<path fill-rule="evenodd"  stroke="rgb(0, 166, 81)" stroke-width="3px" stroke-dasharray="12, 6" stroke-linecap="butt" stroke-linejoin="miter" fill="none"
 d="M439.554,51.196 L877.551,809.883 L1.557,809.883 L439.554,51.196 Z"/>
<path fill-rule="evenodd"  fill="rgb(255, 255, 255)"
 d="M1.500,681.000 L877.500,681.000 L877.500,812.000 L1.500,812.000 L1.500,681.000 Z"/>
<path fill-rule="evenodd"  stroke="rgb(0, 166, 81)" stroke-width="3px" stroke-dasharray="12, 6" stroke-linecap="butt" stroke-linejoin="miter" fill="none"
 d="M439.844,217.459 L743.604,743.625 L136.084,743.625 L439.844,217.459 Z"/>
<path fill-rule="evenodd"  stroke="rgb(0, 166, 81)" stroke-width="3px" stroke-dasharray="12, 6" stroke-linecap="butt" stroke-linejoin="miter" fill="none"
 d="M290.411,484.683 L590.390,484.683 L440.400,743.688 L290.411,484.683 Z"/>
<path fill-rule="evenodd"  fill="rgb(255, 255, 255)"
 d="M273.500,460.000 L590.500,460.000 L590.500,518.000 L273.500,518.000 L273.500,460.000 Z"/>
<path fill-rule="evenodd"  fill="rgb(255, 255, 255)"
 d="M148.500,726.000 L743.500,726.000 L743.500,761.000 L148.500,761.000 L148.500,726.000 Z"/>
<path fill-rule="evenodd"  fill="rgb(255, 255, 255)"
 d="M443.375,0.375 C478.502,0.375 506.978,28.861 506.978,64.000 C506.978,99.139 478.502,127.625 443.375,127.625 C408.248,127.625 379.772,99.139 379.772,64.000 C379.772,28.861 408.248,0.375 443.375,0.375 Z"/>
<path fill-rule="evenodd"  fill="rgb(255, 255, 255)"
 d="M443.375,175.375 C478.502,175.375 506.978,203.861 506.978,239.000 C506.978,274.139 478.502,302.625 443.375,302.625 C408.248,302.625 379.772,274.139 379.772,239.000 C379.772,203.861 408.248,175.375 443.375,175.375 Z"/>
<path fill-rule="evenodd"  fill="rgb(255, 255, 255)"
 d="M292.428,417.375 C327.555,417.375 356.031,445.861 356.031,481.000 C356.031,516.139 327.555,544.625 292.428,544.625 C257.301,544.625 228.825,516.139 228.825,481.000 C228.825,445.861 257.301,417.375 292.428,417.375 Z"/>
<path fill-rule="evenodd"  fill="rgb(255, 255, 255)"
 d="M589.324,417.375 C624.451,417.375 652.927,445.861 652.927,481.000 C652.927,516.139 624.451,544.625 589.324,544.625 C554.197,544.625 525.722,516.139 525.722,481.000 C525.722,445.861 554.197,417.375 589.324,417.375 Z"/>
<path fill-rule="evenodd"  fill="rgb(255, 255, 255)"
 d="M443.375,662.375 C478.502,662.375 506.978,690.861 506.978,726.000 C506.978,761.139 478.502,789.625 443.375,789.625 C408.248,789.625 379.772,761.139 379.772,726.000 C379.772,690.861 408.248,662.375 443.375,662.375 Z"/>
<path fill-rule="evenodd"  fill="rgb(255, 255, 255)"
 d="M739.272,662.375 C774.399,662.375 802.875,690.861 802.875,726.000 C802.875,761.139 774.399,789.625 739.272,789.625 C704.145,789.625 675.669,761.139 675.669,726.000 C675.669,690.861 704.145,662.375 739.272,662.375 Z"/>
<path fill-rule="evenodd"  fill="rgb(255, 255, 255)"
 d="M148.478,662.375 C183.605,662.375 212.081,690.861 212.081,726.000 C212.081,761.139 183.605,789.625 148.478,789.625 C113.351,789.625 84.875,761.139 84.875,726.000 C84.875,690.861 113.351,662.375 148.478,662.375 Z"/>
</svg>